<svg width="24" height="24" viewBox="0 0 24 24" fill="none" xmlns="http://www.w3.org/2000/svg">
<path d="M0.439312 10.9394L5.75391 5.62477C6.04683 5.33184 6.43069 5.18541 6.81459 5.18541C7.1985 5.18541 7.58236 5.33184 7.87528 5.62477C8.46103 6.21056 8.46103 7.1603 7.87528 7.74609L5.12133 10.5H22.5C23.3284 10.5 24 11.1716 24 12C24 12.8284 23.3284 13.5 22.5 13.5H5.12133L7.87528 16.2539C8.46103 16.8397 8.46103 17.7894 7.87528 18.3752C7.28944 18.961 6.33975 18.961 5.75391 18.3752L0.439312 13.0606C-0.146437 12.4749 -0.146437 11.5251 0.439312 10.9394Z" fill="#6C6C6C"/>
</svg>
