

<svg width="24" height="24" viewBox="0 0 24 24" fill="none" xmlns="http://www.w3.org/2000/svg">
<path d="M12.0001 15.6969C14.0407 15.6969 15.695 14.0427 15.695 12.0021C15.695 9.96146 14.0407 8.30722 12.0001 8.30722C9.95954 8.30722 8.3053 9.96146 8.3053 12.0021C8.3053 14.0427 9.95954 15.6969 12.0001 15.6969Z" fill="#40189D"/>
<path d="M23.6319 10.9786C20.7917 7.54654 16.4926 4.24289 12 4.24289C7.50665 4.24289 3.20646 7.54885 0.368214 10.9786C-0.122738 11.5716 -0.122738 12.4325 0.368214 13.0255C1.08178 13.8878 2.57773 15.5523 4.57572 17.0067C9.60759 20.6698 14.3814 20.6779 19.4244 17.0067C21.4224 15.5523 22.9183 13.8878 23.6319 13.0255C24.1214 12.4337 24.1239 11.5735 23.6319 10.9786ZM12 6.82928C14.8525 6.82928 17.1728 9.14964 17.1728 12.0021C17.1728 14.8545 14.8525 17.1748 12 17.1748C9.14763 17.1748 6.82726 14.8545 6.82726 12.0021C6.82726 9.14964 9.14763 6.82928 12 6.82928Z" fill="#40189D"/>
</svg>
